<?xml version="1.0" standalone="no"?>
<!DOCTYPE svg PUBLIC "-//W3C//DTD SVG 20010904//EN"
 "http://www.w3.org/TR/2001/REC-SVG-20010904/DTD/svg10.dtd">
<svg version="1.0" xmlns="http://www.w3.org/2000/svg"
 width="1300.000000pt" height="1300.000000pt" viewBox="0 0 1300.000000 1300.000000"
 preserveAspectRatio="xMidYMid meet">
<metadata>
Created by potrace 1.11, written by Peter Selinger 2001-2013
</metadata>
<g transform="translate(0.000000,1300.000000) scale(0.100000,-0.100000)"
fill="#000000" stroke="none">
<path d="M11094 11200 c-165 -43 -266 -113 -526 -366 -224 -219 -326 -307
-448 -389 -299 -201 -737 -323 -1370 -385 -237 -22 -431 -31 -940 -40 -1153
-20 -2066 -98 -2513 -215 -325 -84 -923 -349 -1297 -574 -230 -138 -515 -331
-600 -405 -41 -36 -129 -112 -195 -168 -204 -173 -377 -332 -461 -425 -568
-627 -950 -1370 -1064 -2073 -39 -244 -52 -680 -30 -1060 18 -303 44 -411 161
-675 45 -101 54 -131 57 -192 4 -61 0 -80 -21 -127 -14 -31 -50 -81 -79 -112
-29 -31 -218 -196 -420 -366 -363 -305 -472 -410 -582 -556 -68 -91 -131 -210
-151 -288 -20 -75 -20 -222 0 -298 52 -195 241 -507 368 -605 110 -84 198
-104 434 -99 153 3 160 4 211 32 68 38 134 96 245 216 103 111 168 204 354
506 220 359 335 504 438 554 111 54 227 15 715 -240 275 -144 355 -180 528
-239 358 -121 792 -223 1127 -266 345 -44 960 -66 1250 -46 520 37 1063 156
1605 353 673 245 1138 489 1840 971 215 147 269 190 635 513 220 194 446 399
502 456 78 79 182 211 443 563 l340 460 109 220 c232 466 418 1020 535 1591
87 425 108 634 107 1057 -2 1143 -163 1926 -498 2424 -83 124 -205 245 -284
283 l-64 30 -195 -1 c-157 0 -209 -4 -266 -19z m-2498 -3440 c144 -15 213 -41
284 -106 65 -61 114 -147 125 -222 9 -55 -21 -238 -46 -278 -27 -44 -128 -138
-174 -162 -98 -50 -132 -54 -485 -62 -184 -5 -382 -14 -440 -20 -455 -48 -945
-166 -1310 -315 -156 -63 -477 -217 -543 -259 -33 -21 -286 -204 -564 -407
l-505 -369 -378 -365 c-208 -200 -396 -386 -417 -412 -21 -25 -123 -120 -227
-210 -177 -152 -194 -165 -259 -185 -231 -70 -489 113 -505 357 -6 100 9 150
78 254 89 133 169 225 452 516 208 214 343 340 648 607 212 185 417 362 457
393 71 55 400 267 703 453 270 166 634 326 1084 477 259 87 424 130 694 184
549 110 1054 160 1328 131z"/>
</g>
</svg>
